<?xml version="1.0" standalone="no"?>
<!DOCTYPE svg PUBLIC "-//W3C//DTD SVG 20010904//EN"
 "http://www.w3.org/TR/2001/REC-SVG-20010904/DTD/svg10.dtd">
<svg version="1.0" xmlns="http://www.w3.org/2000/svg"
 width="128.000000pt" height="128.000000pt" viewBox="0 0 128.000000 128.000000"
 preserveAspectRatio="xMidYMid meet">

<g transform="translate(0.000000,128.000000) scale(0.100000,-0.100000)"
fill="#000000" stroke="none">
<path d="M0 640 l0 -640 640 0 640 0 0 640 0 640 -640 0 -640 0 0 -640z m960
40 l0 -370 -305 0 -305 0 0 302 0 302 67 68 67 68 238 0 238 0 0 -370z"/>
<path d="M508 948 l-3 -63 -58 -5 -58 -5 0 -265 1 -265 265 -3 265 -2 0 335 0
335 -205 0 -204 0 -3 -62z m191 -20 c14 -24 14 -30 -2 -63 -9 -19 -24 -38 -33
-42 -41 -16 -83 87 -49 121 25 24 66 17 84 -16z m-67 -109 c15 -8 26 -8 43 1
18 10 29 8 64 -9 39 -20 41 -24 41 -66 l0 -45 -125 0 -125 0 0 45 c0 41 3 46
38 64 45 24 39 23 64 10z m253 -189 c4 -7 -75 -10 -229 -10 -151 0 -236 4
-236 10 0 6 83 10 229 10 143 0 232 -4 236 -10z m0 -70 c4 -7 -75 -10 -229
-10 -151 0 -236 4 -236 10 0 6 83 10 229 10 143 0 232 -4 236 -10z m0 -80 c-4
-6 -93 -10 -236 -10 -146 0 -229 4 -229 10 0 6 85 10 236 10 154 0 233 -3 229
-10z m-190 -70 c-4 -6 -62 -10 -141 -10 -83 0 -134 4 -134 10 0 6 54 10 141
10 91 0 138 -4 134 -10z"/>
<path d="M435 950 c-18 -20 -17 -20 8 -20 20 0 27 5 27 20 0 11 -4 20 -8 20
-5 0 -17 -9 -27 -20z"/>
</g>
</svg>
